<svg width="669" height="730" viewBox="0 0 669 730" fill="none" xmlns="http://www.w3.org/2000/svg">
<path d="M8.25694 729V696.946V670.234V651.536L5.53418 627.495V615.92L15.5176 593.66L31.8542 530.442L36.3921 519.757L40.0225 496.607L49.0983 484.142L57.2666 469.005L90.8473 452.087L120.798 433.389L125.336 423.595L110.814 412.91V401.335L125.336 395.993L148.933 384.417L167.992 376.404L183.421 363.938L187.959 357.706L183.421 341.679L194.312 326.542L204.296 321.2L214.279 317.638L222.447 303.392L230.616 300.72V303.392L237.876 300.72V292.707L226.078 288.255L214.279 273.118L204.296 251.749L201.573 242.845L191.589 225.927L180.698 206.339V189.421V170.723L183.421 145.792L186.144 143.121V125.313L187.959 110.176L195.22 93.2586L208.833 67.4372L220.632 55.8621H223.355L241.507 35.383L268.734 20.2463L289.609 10.452L313.206 7.78079L335.896 6L364.031 7.78079L390.351 16.6847L418.486 39.835L439.36 62.0948L452.067 84.3547L461.142 120.861L462.958 158.257L461.142 180.517L462.958 213.462L461.142 217.914L462.958 241.064L461.142 257.091L458.42 261.543L454.789 282.022L444.806 303.392L434.822 316.748L438.453 334.555L441.176 346.131L438.453 357.706L428.469 374.623H425.747V379.075L441.176 387.089L451.159 396.883L500.169 412.91L521.043 421.814L534.657 426.266L551.901 441.403L553.716 448.526L561.885 464.553L574.591 487.703L595.465 517.977L598.188 528.661L600.003 553.592L609.079 586.537L622.693 619.482L643.567 680.919L663.534 727.219" stroke="#F2B71F" stroke-width="10"/>
</svg>
